HIERARCHY
ROOT Hips
{
	OFFSET -341.196167 -577.024780 88.986252
	CHANNELS 6 Xposition Yposition Zposition Zrotation Yrotation Xrotation
	JOINT Spine
	{
		OFFSET 0.000000 2.080078 8.814247
		CHANNELS 6 Xposition Yposition Zposition Zrotation Yrotation Xrotation
		JOINT Spine1
		{
			OFFSET 0.000000 0.000000 8.844139
			CHANNELS 6 Xposition Yposition Zposition Zrotation Yrotation Xrotation
			JOINT Spine2
			{
				OFFSET 0.000000 0.000000 11.682266
				CHANNELS 6 Xposition Yposition Zposition Zrotation Yrotation Xrotation
				JOINT Spine3
				{
					OFFSET 0.000000 0.000000 11.746704
					CHANNELS 6 Xposition Yposition Zposition Zrotation Yrotation Xrotation
					JOINT Neck
					{
						OFFSET 0.000000 0.000000 17.658264
						CHANNELS 6 Xposition Yposition Zposition Zrotation Yrotation Xrotation
						JOINT Neck1
						{
							OFFSET 0.000000 0.000000 5.101517
							CHANNELS 6 Xposition Yposition Zposition Zrotation Yrotation Xrotation
							JOINT Head
							{
								OFFSET 0.000000 0.000000 5.101517
								CHANNELS 6 Xposition Yposition Zposition Zrotation Yrotation Xrotation
								JOINT HeadEnd
								{
									OFFSET 0.000000 0.000000 11.655090
									CHANNELS 6 Xposition Yposition Zposition Zrotation Yrotation Xrotation
									End Site
									{
										OFFSET 0.000000 0.000000 0.100006
									}
								}
							}
						}
					}
					JOINT RightShoulder
					{
						OFFSET -2.625397 0.000000 11.175217
						CHANNELS 6 Xposition Yposition Zposition Zrotation Yrotation Xrotation
						JOINT RightArm
						{
							OFFSET 0.000000 0.000000 10.434723
							CHANNELS 6 Xposition Yposition Zposition Zrotation Yrotation Xrotation
							JOINT RightForeArm
							{
								OFFSET 0.000000 0.000000 29.628418
								CHANNELS 6 Xposition Yposition Zposition Zrotation Yrotation Xrotation
								JOINT RightHand
								{
									OFFSET 0.000000 0.000000 22.857605
									CHANNELS 6 Xposition Yposition Zposition Zrotation Yrotation Xrotation
									JOINT RightHandThumb1
									{
										OFFSET -2.867310 -2.944275 3.959564
										CHANNELS 6 Xposition Yposition Zposition Zrotation Yrotation Xrotation
										JOINT RightHandThumb2
										{
											OFFSET 0.000000 0.000000 3.350403
											CHANNELS 6 Xposition Yposition Zposition Zrotation Yrotation Xrotation
											JOINT RightHandThumb3
											{
												OFFSET 0.000000 0.000000 3.756516
												CHANNELS 6 Xposition Yposition Zposition Zrotation Yrotation Xrotation
												JOINT RightHandThumb4
												{
													OFFSET 0.000000 0.000000 3.147339
													CHANNELS 6 Xposition Yposition Zposition Zrotation Yrotation Xrotation
													End Site
													{
														OFFSET 0.000000 0.000000 0.100006
													}
												}
											}
										}
									}
									JOINT RightHandIndex1
									{
										OFFSET -0.086761 -2.345276 10.030899
										CHANNELS 6 Xposition Yposition Zposition Zrotation Yrotation Xrotation
										JOINT RightHandIndex2
										{
											OFFSET 0.000000 0.000000 4.061096
											CHANNELS 6 Xposition Yposition Zposition Zrotation Yrotation Xrotation
											JOINT RightHandIndex3
											{
												OFFSET 0.000000 0.000000 3.248871
												CHANNELS 6 Xposition Yposition Zposition Zrotation Yrotation Xrotation
												JOINT RightHandIndex4
												{
													OFFSET 0.000000 0.000000 2.639709
													CHANNELS 6 Xposition Yposition Zposition Zrotation Yrotation Xrotation
													End Site
													{
														OFFSET 0.000000 0.000000 0.100006
													}
												}
											}
										}
									}
									JOINT RightHandMiddle1
									{
										OFFSET 0.104095 -0.006775 9.502945
										CHANNELS 6 Xposition Yposition Zposition Zrotation Yrotation Xrotation
										JOINT RightHandMiddle2
										{
											OFFSET 0.000000 0.000000 4.568726
											CHANNELS 6 Xposition Yposition Zposition Zrotation Yrotation Xrotation
											JOINT RightHandMiddle3
											{
												OFFSET 0.000000 0.000000 3.654984
												CHANNELS 6 Xposition Yposition Zposition Zrotation Yrotation Xrotation
												JOINT RightHandMiddle4
												{
													OFFSET 0.000000 0.000000 2.741241
													CHANNELS 6 Xposition Yposition Zposition Zrotation Yrotation Xrotation
													End Site
													{
														OFFSET 0.000000 0.000000 0.100006
													}
												}
											}
										}
									}
									JOINT RightHandRing1
									{
										OFFSET 0.086761 2.267456 8.921707
										CHANNELS 6 Xposition Yposition Zposition Zrotation Yrotation Xrotation
										JOINT RightHandRing2
										{
											OFFSET 0.000000 0.000000 4.061096
											CHANNELS 6 Xposition Yposition Zposition Zrotation Yrotation Xrotation
											JOINT RightHandRing3
											{
												OFFSET 0.000000 0.000000 3.654984
												CHANNELS 6 Xposition Yposition Zposition Zrotation Yrotation Xrotation
												JOINT RightHandRing4
												{
													OFFSET 0.000000 0.000000 2.741241
													CHANNELS 6 Xposition Yposition Zposition Zrotation Yrotation Xrotation
													End Site
													{
														OFFSET 0.000000 0.000000 0.100006
													}
												}
											}
										}
									}
									JOINT RightHandPinky1
									{
										OFFSET -0.173492 4.467224 7.976990
										CHANNELS 6 Xposition Yposition Zposition Zrotation Yrotation Xrotation
										JOINT RightHandPinky2
										{
											OFFSET 0.000000 0.000000 3.350403
											CHANNELS 6 Xposition Yposition Zposition Zrotation Yrotation Xrotation
											JOINT RightHandPinky3
											{
												OFFSET 0.000000 0.000000 2.842758
												CHANNELS 6 Xposition Yposition Zposition Zrotation Yrotation Xrotation
												JOINT RightHandPinky4
												{
													OFFSET 0.000000 0.000000 2.639709
													CHANNELS 6 Xposition Yposition Zposition Zrotation Yrotation Xrotation
													End Site
													{
														OFFSET 0.000000 0.000000 0.100006
													}
												}
											}
										}
									}
									JOINT RightForeArmEnd
									{
										OFFSET 0.000000 0.000000 0.000000
										CHANNELS 6 Xposition Yposition Zposition Zrotation Yrotation Xrotation
										End Site
										{
											OFFSET 0.000000 0.000000 0.100006
										}
									}
								}
								JOINT RightArmEnd
								{
									OFFSET 0.000000 0.000000 0.000000
									CHANNELS 6 Xposition Yposition Zposition Zrotation Yrotation Xrotation
									End Site
									{
										OFFSET 0.000000 0.000000 0.100006
									}
								}
							}
						}
					}
					JOINT LeftShoulder
					{
						OFFSET 2.625397 0.000000 11.175217
						CHANNELS 6 Xposition Yposition Zposition Zrotation Yrotation Xrotation
						JOINT LeftArm
						{
							OFFSET 0.000000 0.000000 10.813629
							CHANNELS 6 Xposition Yposition Zposition Zrotation Yrotation Xrotation
							JOINT LeftForeArm
							{
								OFFSET 0.000000 0.000000 28.724777
								CHANNELS 6 Xposition Yposition Zposition Zrotation Yrotation Xrotation
								JOINT LeftHand
								{
									OFFSET 0.644379 0.328857 25.716171
									CHANNELS 6 Xposition Yposition Zposition Zrotation Yrotation Xrotation
									JOINT LeftHandThumb1
									{
										OFFSET 2.867310 -2.944275 3.959564
										CHANNELS 6 Xposition Yposition Zposition Zrotation Yrotation Xrotation
										JOINT LeftHandThumb2
										{
											OFFSET 0.000000 0.000000 3.350403
											CHANNELS 6 Xposition Yposition Zposition Zrotation Yrotation Xrotation
											JOINT LeftHandThumb3
											{
												OFFSET 0.000000 0.000000 3.756516
												CHANNELS 6 Xposition Yposition Zposition Zrotation Yrotation Xrotation
												JOINT LeftHandThumb4
												{
													OFFSET 0.000000 0.000000 3.100006
													CHANNELS 6 Xposition Yposition Zposition Zrotation Yrotation Xrotation
													End Site
													{
														OFFSET 0.000000 0.000000 0.100006
													}
												}
											}
										}
									}
									JOINT LeftHandIndex1
									{
										OFFSET 0.086761 -2.345276 10.030899
										CHANNELS 6 Xposition Yposition Zposition Zrotation Yrotation Xrotation
										JOINT LeftHandIndex2
										{
											OFFSET 0.000000 0.000000 4.061096
											CHANNELS 6 Xposition Yposition Zposition Zrotation Yrotation Xrotation
											JOINT LeftHandIndex3
											{
												OFFSET 0.000000 0.000000 3.248871
												CHANNELS 6 Xposition Yposition Zposition Zrotation Yrotation Xrotation
												JOINT LeftHandIndex4
												{
													OFFSET 0.000000 0.000000 2.639709
													CHANNELS 6 Xposition Yposition Zposition Zrotation Yrotation Xrotation
													End Site
													{
														OFFSET 0.000000 0.000000 0.100006
													}
												}
											}
										}
									}
									JOINT LeftHandMiddle1
									{
										OFFSET -0.104095 -0.006775 9.502945
										CHANNELS 6 Xposition Yposition Zposition Zrotation Yrotation Xrotation
										JOINT LeftHandMiddle2
										{
											OFFSET 0.000000 0.000000 4.568726
											CHANNELS 6 Xposition Yposition Zposition Zrotation Yrotation Xrotation
											JOINT LeftHandMiddle3
											{
												OFFSET 0.000000 0.000000 3.654984
												CHANNELS 6 Xposition Yposition Zposition Zrotation Yrotation Xrotation
												JOINT LeftHandMiddle4
												{
													OFFSET 0.000000 0.000000 2.741241
													CHANNELS 6 Xposition Yposition Zposition Zrotation Yrotation Xrotation
													End Site
													{
														OFFSET 0.000000 0.000000 0.100006
													}
												}
											}
										}
									}
									JOINT LeftHandRing1
									{
										OFFSET -0.086761 2.267456 8.921707
										CHANNELS 6 Xposition Yposition Zposition Zrotation Yrotation Xrotation
										JOINT LeftHandRing2
										{
											OFFSET 0.000000 0.000000 4.061096
											CHANNELS 6 Xposition Yposition Zposition Zrotation Yrotation Xrotation
											JOINT LeftHandRing3
											{
												OFFSET 0.000000 0.000000 3.654984
												CHANNELS 6 Xposition Yposition Zposition Zrotation Yrotation Xrotation
												JOINT LeftHandRing4
												{
													OFFSET 0.000000 0.000000 2.741241
													CHANNELS 6 Xposition Yposition Zposition Zrotation Yrotation Xrotation
													End Site
													{
														OFFSET 0.000000 0.000000 0.100006
													}
												}
											}
										}
									}
									JOINT LeftHandPinky1
									{
										OFFSET 0.173492 4.467224 7.976990
										CHANNELS 6 Xposition Yposition Zposition Zrotation Yrotation Xrotation
										JOINT LeftHandPinky2
										{
											OFFSET 0.000000 0.000000 3.350403
											CHANNELS 6 Xposition Yposition Zposition Zrotation Yrotation Xrotation
											JOINT LeftHandPinky3
											{
												OFFSET 0.000000 0.000000 2.842758
												CHANNELS 6 Xposition Yposition Zposition Zrotation Yrotation Xrotation
												JOINT LeftHandPinky4
												{
													OFFSET 0.000000 0.000000 2.639709
													CHANNELS 6 Xposition Yposition Zposition Zrotation Yrotation Xrotation
													End Site
													{
														OFFSET 0.000000 0.000000 0.100006
													}
												}
											}
										}
									}
									JOINT LeftForeArmEnd
									{
										OFFSET 0.000000 0.000000 0.000000
										CHANNELS 6 Xposition Yposition Zposition Zrotation Yrotation Xrotation
										End Site
										{
											OFFSET 0.000000 0.000000 0.100006
										}
									}
								}
								JOINT LeftArmEnd
								{
									OFFSET 0.000000 0.000000 0.000000
									CHANNELS 6 Xposition Yposition Zposition Zrotation Yrotation Xrotation
									End Site
									{
										OFFSET 0.000000 0.000000 0.100006
									}
								}
							}
						}
					}
				}
			}
		}
	}
	JOINT RightUpLeg
	{
		OFFSET -11.289948 0.000000 0.000000
		CHANNELS 6 Xposition Yposition Zposition Zrotation Yrotation Xrotation
		JOINT RightLeg
		{
			OFFSET 0.000000 0.000000 -38.200329
			CHANNELS 6 Xposition Yposition Zposition Zrotation Yrotation Xrotation
			JOINT RightFoot
			{
				OFFSET 0.000000 0.000000 -39.900856
				CHANNELS 6 Xposition Yposition Zposition Zrotation Yrotation Xrotation
				JOINT RightToeBase
				{
					OFFSET 0.000000 -15.261658 0.000001
					CHANNELS 6 Xposition Yposition Zposition Zrotation Yrotation Xrotation
					JOINT RightToeBaseEnd
					{
						OFFSET 0.000000 -7.370728 0.000000
						CHANNELS 6 Xposition Yposition Zposition Zrotation Yrotation Xrotation
						End Site
						{
							OFFSET 0.000000 0.000000 0.100000
						}
					}
				}
				JOINT RightLegEnd
				{
					OFFSET 0.000000 0.000000 0.000000
					CHANNELS 6 Xposition Yposition Zposition Zrotation Yrotation Xrotation
					End Site
					{
						OFFSET 0.000000 0.000000 0.100000
					}
				}
			}
			JOINT RightUpLegEnd
			{
				OFFSET 0.000000 0.000000 0.000000
				CHANNELS 6 Xposition Yposition Zposition Zrotation Yrotation Xrotation
				End Site
				{
					OFFSET 0.000000 0.000000 0.099998
				}
			}
		}
	}
	JOINT LeftUpLeg
	{
		OFFSET 11.315674 0.000000 0.000000
		CHANNELS 6 Xposition Yposition Zposition Zrotation Yrotation Xrotation
		JOINT LeftLeg
		{
			OFFSET 0.000000 0.000000 -38.200329
			CHANNELS 6 Xposition Yposition Zposition Zrotation Yrotation Xrotation
			JOINT LeftFoot
			{
				OFFSET 0.000000 0.000000 -39.900856
				CHANNELS 6 Xposition Yposition Zposition Zrotation Yrotation Xrotation
				JOINT LeftToeBase
				{
					OFFSET 0.000000 -15.261658 0.000001
					CHANNELS 6 Xposition Yposition Zposition Zrotation Yrotation Xrotation
					JOINT LeftToeBaseEnd
					{
						OFFSET 0.000000 -7.539978 0.000000
						CHANNELS 6 Xposition Yposition Zposition Zrotation Yrotation Xrotation
						End Site
						{
							OFFSET 0.000000 0.000000 0.100000
						}
					}
				}
				JOINT LeftLegEnd
				{
					OFFSET 0.000000 0.000000 0.000000
					CHANNELS 6 Xposition Yposition Zposition Zrotation Yrotation Xrotation
					End Site
					{
						OFFSET 0.000000 0.000000 0.100000
					}
				}
			}
			JOINT LeftUpLegEnd
			{
				OFFSET 0.000000 0.000000 0.000000
				CHANNELS 6 Xposition Yposition Zposition Zrotation Yrotation Xrotation
				End Site
				{
					OFFSET 0.000000 0.000000 0.099998
				}
			}
		}
	}
}
MOTION
Frames: 2
Frame Time: 0.016667
-30.082397 -16.693970 88.180145 2.211743 -7.080995 -6.140261 -0.000020 2.080055 8.814249 1.186518 0.675919 2.960776 -0.000007 0.000005 8.844128 1.837733 1.856845 -0.113749 -0.000021 0.000001 11.682278 -0.999568 2.500586 1.661868 -0.000001 -0.000010 11.746707 0.063619 3.214060 1.404934 0.000001 0.000015 17.658276 5.021038 -2.977126 17.467627 -0.000005 -0.000033 5.101536 7.187991 -1.511944 1.987391 0.000011 0.000025 5.101561 -3.451803 3.242032 -21.595270 -0.000002 0.000003 11.655060 -0.000001 0.000000 0.000000 -2.625412 -0.000011 11.175251 18.476568 -70.970098 -0.031759 0.000048 0.000004 10.434738 43.411115 -8.639025 18.158507 0.000011 -0.000046 29.628429 51.297473 -1.057206 23.970983 0.000050 -0.000093 22.857622 32.287305 0.574209 -6.890488 -2.867310 -2.944244 3.959564 32.468264 -13.433371 57.719845 -0.000015 -0.000004 3.350401 -4.374752 3.776088 -8.408332 -0.000002 -0.000021 3.756508 -2.978513 2.691109 -5.806395 0.000012 -0.000004 3.147330 0.000001 0.000000 -0.000001 -0.086739 -2.345301 10.030914 -4.527772 24.529269 22.386794 0.000008 -0.000026 4.061137 0.502607 -0.000495 -0.000076 0.000045 -0.000006 3.248904 0.002545 0.000003 0.000419 0.000001 -0.000007 2.639740 0.000001 0.000002 -0.000000 0.104095 -0.006780 9.502983 0.062575 20.619260 19.281919 0.000004 -0.000026 4.568735 0.502501 0.000094 0.000008 -0.000003 -0.000019 3.655003 0.002373 0.000023 0.000003 0.000027 -0.000003 2.741241 0.000001 -0.000001 0.000001 0.086769 2.267445 8.921791 7.554873 15.512470 15.114080 -0.000004 -0.000031 4.061112 -1.010394 -0.000223 -0.000004 0.000006 0.000026 3.654986 -0.008253 0.000004 -0.005818 -0.000028 0.000019 2.741246 -0.000003 -0.000001 -0.000001 -0.173492 4.467249 7.977020 15.716265 12.154822 8.704963 0.000014 -0.000004 3.350387 -2.015589 -0.028337 0.000989 0.000007 -0.000016 2.842755 -0.013471 0.015240 -0.024778 0.000011 -0.000007 2.639707 0.000001 -0.000004 0.000001 -0.000001 -0.000004 0.000015 -0.000001 0.000000 0.000000 0.000000 0.000006 0.000001 -0.000002 0.000000 0.000000 2.625420 -0.000038 11.175250 -18.622663 72.628919 -0.513344 -0.000031 -0.000023 10.813629 -48.860998 17.718653 11.475324 -0.000046 0.000000 28.724731 -40.744223 11.007426 28.305521 0.644413 0.328903 25.716164 -51.867422 -2.407514 -22.459914 2.867294 -2.944290 3.959595 -33.134190 11.752134 60.762934 0.000041 0.000066 3.350411 0.889509 -0.862353 -1.776142 0.000009 0.000012 3.756539 0.614872 -0.601799 -1.231978 0.000043 -0.000008 3.100006 0.000001 -0.000003 0.000001 0.086761 -2.345268 10.030914 -18.320980 -37.796283 40.148071 -0.000003 -0.000017 4.061084 0.501509 -0.039504 -0.000398 0.000014 -0.000061 3.248868 0.001634 0.022050 -0.001561 -0.000020 -0.000005 2.639709 -0.000000 -0.000000 -0.000000 -0.104080 -0.006817 9.502975 -192.532733 218.392389 -151.778565 0.000023 0.000025 4.568728 0.501806 0.039576 0.000455 -0.000012 -0.000027 3.654987 0.082847 -0.022027 -0.000744 -0.000004 -0.000017 2.741244 0.000003 0.000000 0.000000 -0.086773 2.267458 8.921715 -181.811863 216.548498 -168.533579 0.000009 0.000001 4.061094 -1.000951 0.000049 -0.000137 -0.000021 0.000025 3.654964 -0.000670 0.000006 -0.007909 -0.000035 0.000020 2.741220 -0.000003 0.000001 -0.000000 0.173500 4.467227 7.977028 -170.815135 209.850609 -183.932896 -0.000042 -0.000035 3.350422 -2.005760 -0.000049 -0.000054 -0.000070 -0.000065 2.842761 -0.004906 -0.000009 -0.000303 -0.000022 -0.000038 2.639721 -0.000003 0.000001 -0.000002 -0.000003 0.000011 0.000012 -0.000002 -0.000003 0.000000 0.000029 -0.000000 0.000000 -0.000001 -0.000004 0.000001 -11.289978 0.000048 0.000011 -13.005046 6.047680 -7.562052 0.000012 -0.000055 -38.200306 0.024319 -0.013174 28.438852 -0.000005 -0.000025 -39.900856 -15.099537 0.481172 10.545460 0.000010 -15.261640 0.000022 0.559924 0.613053 -17.590391 0.000010 -7.370744 0.000001 0.000003 0.000000 -0.000000 0.000003 0.000008 -0.000001 -0.000001 -0.000001 -0.000001 0.000008 0.000003 0.000000 -0.000000 0.000001 0.000002 11.315693 0.000013 0.000023 -3.763004 -12.641978 9.706266 -0.000003 -0.000031 -38.200333 0.475064 -0.114016 13.494671 -0.000015 0.000004 -39.900871 6.453844 -2.590439 32.571198 -0.000004 -15.261748 -0.000002 0.750388 -2.156459 -18.967746 -0.000022 -7.539931 0.000000 0.000002 -0.000003 0.000000 -0.000031 0.000006 -0.000002 -0.000001 0.000002 0.000000 0.000001 0.000001 0.000003 -0.000000 0.000000 0.000002 
-30.306274 -16.920715 89.608810 3.595687 -6.922197 -5.501038 0.000009 2.080106 8.814255 1.089261 0.823049 2.288454 -0.000006 0.000014 8.844149 1.585994 1.712117 -0.372517 0.000007 0.000000 11.682271 -1.057421 2.323929 1.488268 0.000002 -0.000029 11.746723 -0.036334 3.045999 1.359919 -0.000010 -0.000036 17.658285 4.389487 -2.913417 18.174894 -0.000005 0.000068 5.101518 6.406573 -1.098030 2.339476 0.000012 0.000031 5.101540 -3.218495 3.232946 -21.280853 -0.000002 -0.000001 11.655076 0.000000 0.000000 -0.000000 -2.625412 -0.000011 11.175229 17.737339 -70.923960 -0.033487 0.000020 -0.000004 10.434738 54.419737 -13.295061 16.049713 0.000046 -0.000011 29.628433 43.868054 0.817546 25.930226 0.000010 -0.000059 22.857635 39.291080 -2.342919 -5.687967 -2.867302 -2.944321 3.959541 32.750579 -12.655473 59.096894 0.000003 -0.000031 3.350405 -2.747866 2.501743 -5.370164 0.000018 -0.000019 3.756494 -1.883136 1.764774 -3.715697 -0.000010 -0.000009 3.147336 0.000001 -0.000003 -0.000002 -0.086784 -2.345306 10.030914 -2.906636 32.454289 30.894032 -0.000010 0.000012 4.061099 0.503223 -0.000009 -0.000089 0.000019 0.000024 3.248877 0.003162 0.000000 0.000504 0.000039 -0.000005 2.639703 0.000001 -0.000001 0.000002 0.104088 -0.006799 9.502930 1.127153 26.027899 25.145157 0.000024 0.000019 4.568762 0.503164 0.000089 0.000010 0.000012 -0.000018 3.654969 0.002983 0.000013 0.000002 0.000001 -0.000009 2.741262 0.000002 -0.000001 0.000000 0.086771 2.267460 8.921722 8.116362 18.185263 18.927899 -0.000021 0.000019 4.061090 -1.012639 0.000008 -0.000009 -0.000013 -0.000029 3.655041 -0.010247 -0.000007 -0.006498 -0.000006 -0.000003 2.741241 0.000001 -0.000001 -0.000000 -0.173489 4.467197 7.976982 16.004240 13.227089 10.362870 0.000001 0.000002 3.350372 -2.018643 -0.000004 -0.000007 0.000005 -0.000004 2.842740 -0.015806 0.000005 -0.028608 -0.000009 0.000007 2.639722 -0.000001 -0.000000 0.000000 -0.000036 0.000033 -0.000021 0.000002 -0.000001 -0.000001 -0.000011 0.000013 -0.000003 -0.000001 0.000001 0.000003 2.625404 -0.000019 11.175220 -19.062298 71.955449 -0.512078 0.000013 -0.000023 10.813641 -55.110460 21.310720 6.440275 -0.000069 -0.000053 28.724747 -36.198278 8.294569 33.812483 0.644386 0.328938 25.716206 -51.806561 1.890837 -22.086520 2.867264 -2.944290 3.959595 -33.203062 11.604766 61.041551 0.000027 0.000024 3.350417 0.590030 -0.577970 -1.182219 0.000040 -0.000011 3.756539 0.408469 -0.402437 -0.820448 0.000008 0.000009 3.100029 -0.000001 0.000000 0.000001 0.086746 -2.345314 10.030914 -17.501620 -35.924114 39.764948 -0.000000 0.000029 4.061087 0.501930 0.000002 -0.000058 -0.000039 0.000027 3.248870 0.002074 -0.000000 -0.001747 -0.000009 0.000002 2.639711 0.000000 -0.000001 -0.000002 -0.104095 -0.006760 9.502945 -192.049756 216.953063 -151.904473 0.000021 -0.000016 4.568740 0.502289 0.220423 0.002077 0.000009 0.000021 3.654978 0.095281 -0.122467 -0.000987 0.000007 -0.000016 2.741248 0.000002 -0.000000 0.000001 -0.086754 2.267438 8.921738 -181.630071 215.624632 -168.237354 -0.000035 -0.000072 4.061094 -1.001194 -0.000080 -0.000155 0.000000 0.000002 3.654995 -0.000845 0.000007 -0.009206 0.000004 0.000000 2.741244 -0.000000 -0.000002 -0.000000 0.173500 4.467190 7.977009 -170.771613 209.526981 -183.434634 -0.000031 -0.000052 3.350416 -2.007037 -0.000054 -0.000062 -0.000045 -0.000057 2.842767 -0.005858 -0.000010 -0.000435 -0.000018 -0.000057 2.639726 -0.000000 -0.000001 0.000001 0.000006 0.000015 0.000014 -0.000001 0.000000 0.000000 0.000026 -0.000021 0.000008 0.000002 0.000001 -0.000000 -11.289968 0.000059 0.000011 -13.793076 5.896797 -4.757883 0.000006 0.000052 -38.200329 -0.196642 0.078864 21.856807 -0.000003 -0.000019 -39.900856 -14.930782 0.698924 15.577990 0.000008 -15.261645 -0.000004 0.416805 0.793578 -19.255727 -0.000002 -7.370720 -0.000000 -0.000001 -0.000000 0.000000 0.000014 -0.000017 -0.000002 0.000003 0.000001 0.000003 0.000000 0.000004 -0.000001 -0.000001 -0.000000 0.000000 11.315687 0.000018 0.000023 -4.626906 -11.941222 10.273424 0.000014 -0.000024 -38.200336 0.775241 -0.146792 10.720092 0.000003 -0.000037 -39.900890 5.369512 -1.749717 37.092736 -0.000012 -15.261700 0.000001 0.516530 -2.061176 -18.893268 -0.000024 -7.539927 0.000001 0.000002 -0.000000 0.000004 -0.000027 0.000001 0.000001 -0.000000 0.000000 -0.000001 0.000001 0.000000 -0.000005 0.000000 0.000001 0.000001 
